<svg width="20" height="20" viewBox="0 0 20 20" fill="none" xmlns="http://www.w3.org/2000/svg">
<path d="M7.7958 4.8584L7.8958 4.9084C8.29997 5.11673 8.62913 5.4459 8.83747 5.85006L8.88747 5.95006C9.08747 6.3459 9.65413 6.3459 9.8583 5.95006L9.9083 5.85006C10.1166 5.4459 10.4458 5.11673 10.85 4.9084L10.95 4.8584C11.3458 4.6584 11.3458 4.09173 10.95 3.88757L10.85 3.83757C10.4458 3.62923 10.1166 3.30006 9.9083 2.8959L9.8583 2.7959C9.6583 2.40007 9.09163 2.40007 8.88747 2.7959L8.83747 2.8959C8.62913 3.30006 8.29997 3.62923 7.8958 3.83757L7.7958 3.88757C7.39997 4.08757 7.39997 4.65423 7.7958 4.8584Z" fill="url(#paint0_linear_762_21133)"/>
<path d="M8.5833 8.76257C8.99163 8.55423 8.99163 7.97506 8.5833 7.76673L7.97497 7.45423C7.4333 7.17507 6.99163 6.7334 6.71247 6.19173L6.39997 5.5834C6.19163 5.17507 5.61247 5.17507 5.40413 5.5834L5.09163 6.19173C4.81247 6.7334 4.3708 7.17507 3.82913 7.45423L3.2208 7.76673C2.81247 7.97506 2.81247 8.55423 3.2208 8.76257L3.82913 9.07507C4.3708 9.35423 4.81247 9.7959 5.09163 10.3376L5.40413 10.9459C5.61247 11.3542 6.19163 11.3542 6.39997 10.9459L6.71247 10.3376C6.99163 9.7959 7.4333 9.35423 7.97497 9.07507L8.5833 8.76257Z" fill="url(#paint1_linear_762_21133)"/>
<path d="M16.4 11.2542L15.7833 10.9376C15.0375 10.5584 14.4416 9.96257 14.0625 9.21673L13.7458 8.60006C13.4666 8.05007 12.9083 7.7084 12.2916 7.7084C11.675 7.7084 11.1166 8.05007 10.8375 8.60006L10.5208 9.21673C10.1416 9.96257 9.5458 10.5584 8.79997 10.9376L8.1833 11.2542C7.6333 11.5334 7.29163 12.0917 7.29163 12.7084C7.29163 13.3251 7.6333 13.8834 8.1833 14.1626L8.79997 14.4792C9.5458 14.8584 10.1416 15.4542 10.5208 16.2001L10.8375 16.8167C11.1166 17.3667 11.675 17.7084 12.2916 17.7084C12.9083 17.7084 13.4666 17.3667 13.7458 16.8167L14.0625 16.2001C14.4416 15.4542 15.0375 14.8584 15.7833 14.4792L16.4 14.1626C16.95 13.8834 17.2916 13.3251 17.2916 12.7084C17.2916 12.0917 16.95 11.5334 16.4 11.2542ZM15.8333 13.0501L15.2166 13.3667C14.2333 13.8667 13.45 14.6501 12.95 15.6334L12.6333 16.2501C12.5375 16.4376 12.3625 16.4584 12.2916 16.4584C12.2208 16.4584 12.0458 16.4376 11.95 16.2501L11.6333 15.6334C11.1333 14.6501 10.35 13.8667 9.36663 13.3667L8.74997 13.0501C8.56247 12.9542 8.54163 12.7792 8.54163 12.7084C8.54163 12.6376 8.56247 12.4626 8.74997 12.3667L9.36663 12.0501C10.35 11.5501 11.1333 10.7667 11.6333 9.7834L11.95 9.16673C12.0458 8.97923 12.2208 8.9584 12.2916 8.9584C12.3625 8.9584 12.5375 8.97923 12.6333 9.16673L12.95 9.7834C13.45 10.7667 14.2333 11.5501 15.2166 12.0501L15.8333 12.3667C16.0208 12.4626 16.0416 12.6376 16.0416 12.7084C16.0416 12.7792 16.0208 12.9542 15.8333 13.0501Z" fill="url(#paint2_linear_762_21133)"/>
<defs>
<linearGradient id="paint0_linear_762_21133" x1="10.1031" y1="2.49902" x2="10.1031" y2="17.7084" gradientUnits="userSpaceOnUse">
<stop offset="0.5" stop-color="#019678"/>
<stop offset="1" stop-color="#FE0002"/>
</linearGradient>
<linearGradient id="paint1_linear_762_21133" x1="10.1031" y1="2.49902" x2="10.1031" y2="17.7084" gradientUnits="userSpaceOnUse">
<stop offset="0.5" stop-color="#019678"/>
<stop offset="1" stop-color="#FE0002"/>
</linearGradient>
<linearGradient id="paint2_linear_762_21133" x1="10.1031" y1="2.49902" x2="10.1031" y2="17.7084" gradientUnits="userSpaceOnUse">
<stop offset="0.5" stop-color="#019678"/>
<stop offset="1" stop-color="#FE0002"/>
</linearGradient>
</defs>
</svg>
