<?xml version="1.0" encoding="UTF-8"?>
<svg version="1.1" xmlns="http://www.w3.org/2000/svg" width="342" height="331">
<path d="M0 0 C112.86 0 225.72 0 342 0 C342 109.23 342 218.46 342 331 C229.14 331 116.28 331 0 331 C0 221.77 0 112.54 0 0 Z " fill="#ECE5DE" transform="translate(0,0)"/>
<path d="M0 0 C8.45054809 0 14.94130372 0.27086596 22.875 2.25 C23.82826172 2.47816406 24.78152344 2.70632812 25.76367188 2.94140625 C38.1092723 5.9337725 50.09142405 9.5840539 62 14 C62 14.66 62 15.32 62 16 C62.99386719 16.23460938 63.98773438 16.46921875 65.01171875 16.7109375 C69.41298303 17.97413021 72.9864277 20.15697008 76.8125 22.625 C77.50956055 23.0686792 78.20662109 23.5123584 78.92480469 23.96948242 C86.48250466 28.84911263 93.4989467 33.80154963 99 41 C93.33846154 39.52307692 93.33846154 39.52307692 91.625 36.875 C91.41875 36.25625 91.2125 35.6375 91 35 C90.34 35 89.68 35 89 35 C88.67 34.34 88.34 33.68 88 33 C86.35636866 32.27840576 84.68949614 31.60648579 83 31 C83 30.34 83 29.68 83 29 C80.03 29.495 80.03 29.495 77 30 C77.53851991 33.87734333 78.56125452 35.97595561 81 39 C81.33 39.721875 81.66 40.44375 82 41.1875 C82.92729859 43.35236812 82.92729859 43.35236812 86 44 C85.67 44.99 85.34 45.98 85 47 C85.99 46.67 86.98 46.34 88 46 C88.10957031 46.68707031 88.21914063 47.37414062 88.33203125 48.08203125 C88.49058594 48.98308594 88.64914062 49.88414063 88.8125 50.8125 C89.03873047 52.15248047 89.03873047 52.15248047 89.26953125 53.51953125 C90.063841 56.21678629 90.96740147 57.14560189 93 59 C93 59.66 93 60.32 93 61 C93.66 61 94.32 61 95 61 C95.79953138 64.28696233 96.09658936 65.71023192 95 69 C95.66 69.33 96.32 69.66 97 70 C96.67 71.98 96.34 73.96 96 76 C96.66 76 97.32 76 98 76 C98.0292814 80.47915271 98.04689296 84.95828042 98.0625 89.4375 C98.07087891 90.69755859 98.07925781 91.95761719 98.08789062 93.25585938 C98.10531376 99.9289203 97.91378066 106.38768168 97 113 C96.34 113 95.68 113 95 113 C94.896875 113.928125 94.79375 114.85625 94.6875 115.8125 C91.3102469 138.28249064 76.61129672 158.14193045 59 172 C55.42007203 174.49038468 51.742253 176.76344057 48 179 C47.31808594 179.45246094 46.63617188 179.90492188 45.93359375 180.37109375 C33.25991697 188.33244453 15.61215195 191 1 191 C1 222.02 1 253.04 1 285 C-7.06666442 285 -14.13298674 284.83668813 -21.9375 283.4375 C-22.91968506 283.26259033 -23.90187012 283.08768066 -24.91381836 282.9074707 C-40.519468 279.9403842 -55.09957872 274.64430624 -69 267 C-69.81339844 266.58105469 -70.62679687 266.16210938 -71.46484375 265.73046875 C-80.44761031 261.0101749 -88.43731353 254.72238798 -96 248 C-94.515 247.01 -94.515 247.01 -93 246 C-91.9171875 247.11375 -91.9171875 247.11375 -90.8125 248.25 C-88.31407427 250.69290515 -85.76356798 252.8681047 -83 255 C-81.68 252.36 -80.36 249.72 -79 247 C-79.66 247 -80.32 247 -81 247 C-81.33 245.35 -81.66 243.7 -82 242 C-82.66 242 -83.32 242 -84 242 C-84 241.01 -84 240.02 -84 239 C-84.99 239 -85.98 239 -87 239 C-87 238.01 -87 237.02 -87 236 C-87.66 235.67 -88.32 235.34 -89 235 C-88.505 234.01 -88.505 234.01 -88 233 C-88.66 232.67 -89.32 232.34 -90 232 C-90.33333333 229.66666667 -90.66666667 227.33333333 -91 225 C-91.66 224.67 -92.32 224.34 -93 224 C-95.89641901 216.21154313 -96.43970741 208.16687588 -96.7890625 199.95703125 C-96.66739601 197.11427016 -96.66739601 197.11427016 -98 196 C-98.62920593 187.70928653 -97.77727273 179.5508658 -94.9296875 171.75390625 C-93.96793453 168.90501616 -93.21931207 166.0256393 -92.46069336 163.11743164 C-86.07874125 139.3640134 -69.8698017 119.71486811 -48.65625 107.390625 C-41.34774886 103.34140781 -34.1747087 99.90433555 -26 98 C-24.205625 97.443125 -24.205625 97.443125 -22.375 96.875 C-14.76029856 94.90081814 -7.9727908 95 0 95 C0 63.65 0 32.3 0 0 Z " fill="#E92F15" transform="translate(168,20)"/>
<path d="M0 0 C1.47388184 0.00507568 1.47388184 0.00507568 2.97753906 0.01025391 C3.72229492 0.01460449 4.46705078 0.01895508 5.234375 0.0234375 C5.41135796 14.06498651 5.57708088 28.10665414 5.734375 42.1484375 C5.74625225 43.20818787 5.7581295 44.26793823 5.77036667 45.35980225 C6.154386 79.91490451 6.32547603 114.46624459 6.296875 149.0234375 C6.29601898 150.06529457 6.29516296 151.10715164 6.29428101 152.18058014 C6.28312558 164.79488445 6.2634186 177.40916198 6.234375 190.0234375 C4.34825829 190.04057853 2.46209552 190.05268831 0.57592773 190.06274414 C-0.47442154 190.07004044 -1.52477081 190.07733673 -2.60694885 190.08485413 C-7.39243074 189.99180624 -11.99920661 189.30425297 -16.703125 188.4609375 C-17.68531006 188.28602783 -18.66749512 188.11111816 -19.67944336 187.9309082 C-35.285093 184.9638217 -49.86520372 179.66774374 -63.765625 172.0234375 C-64.57902344 171.60449219 -65.39242187 171.18554688 -66.23046875 170.75390625 C-75.21323531 166.0336124 -83.20293853 159.74582548 -90.765625 153.0234375 C-89.280625 152.0334375 -89.280625 152.0334375 -87.765625 151.0234375 C-86.6828125 152.1371875 -86.6828125 152.1371875 -85.578125 153.2734375 C-83.07969927 155.71634265 -80.52919298 157.8915422 -77.765625 160.0234375 C-76.445625 157.3834375 -75.125625 154.7434375 -73.765625 152.0234375 C-74.425625 152.0234375 -75.085625 152.0234375 -75.765625 152.0234375 C-76.095625 150.3734375 -76.425625 148.7234375 -76.765625 147.0234375 C-77.425625 147.0234375 -78.085625 147.0234375 -78.765625 147.0234375 C-78.765625 146.0334375 -78.765625 145.0434375 -78.765625 144.0234375 C-79.755625 144.0234375 -80.745625 144.0234375 -81.765625 144.0234375 C-81.765625 143.0334375 -81.765625 142.0434375 -81.765625 141.0234375 C-82.425625 140.6934375 -83.085625 140.3634375 -83.765625 140.0234375 C-83.270625 139.0334375 -83.270625 139.0334375 -82.765625 138.0234375 C-83.425625 137.6934375 -84.085625 137.3634375 -84.765625 137.0234375 C-85.09895833 134.69010417 -85.43229167 132.35677083 -85.765625 130.0234375 C-86.425625 129.6934375 -87.085625 129.3634375 -87.765625 129.0234375 C-90.66204401 121.23498063 -91.20533241 113.19031338 -91.5546875 104.98046875 C-91.43302101 102.13770766 -91.43302101 102.13770766 -92.765625 101.0234375 C-93.39483093 92.73272403 -92.54289773 84.5743033 -89.6953125 76.77734375 C-88.73355953 73.92845366 -87.98493707 71.0490768 -87.22631836 68.14086914 C-80.84436625 44.3874509 -64.6354267 24.73830561 -43.421875 12.4140625 C-36.11337386 8.36484531 -28.9403337 4.92777305 -20.765625 3.0234375 C-19.569375 2.6521875 -18.373125 2.2809375 -17.140625 1.8984375 C-11.36035809 0.39984978 -5.93996614 -0.02659686 0 0 Z " fill="#37896E" transform="translate(162.765625,114.9765625)"/>
<path d="M0 0 C8.95653552 2.01768108 17.41586758 4.78729955 26 8 C26 8.66 26 9.32 26 10 C27.49080078 10.35191406 27.49080078 10.35191406 29.01171875 10.7109375 C33.41298303 11.97413021 36.9864277 14.15697008 40.8125 16.625 C41.50956055 17.0686792 42.20662109 17.5123584 42.92480469 17.96948242 C50.48250466 22.84911263 57.4989467 27.80154963 63 35 C57.33846154 33.52307692 57.33846154 33.52307692 55.625 30.875 C55.41875 30.25625 55.2125 29.6375 55 29 C54.34 29 53.68 29 53 29 C52.505 28.01 52.505 28.01 52 27 C50.35636866 26.27840576 48.68949614 25.60648579 47 25 C47 24.34 47 23.68 47 23 C44.03 23.495 44.03 23.495 41 24 C41.53851991 27.87734333 42.56125452 29.97595561 45 33 C45.495 34.0828125 45.495 34.0828125 46 35.1875 C46.92729859 37.35236812 46.92729859 37.35236812 50 38 C49.67 38.99 49.34 39.98 49 41 C49.99 40.67 50.98 40.34 52 40 C52.10957031 40.68707031 52.21914063 41.37414062 52.33203125 42.08203125 C52.49058594 42.98308594 52.64914062 43.88414063 52.8125 44.8125 C52.96332031 45.70582031 53.11414063 46.59914062 53.26953125 47.51953125 C54.063841 50.21678629 54.96740147 51.14560189 57 53 C57 53.66 57 54.32 57 55 C57.66 55 58.32 55 59 55 C59.79953138 58.28696233 60.09658936 59.71023192 59 63 C59.99 63.495 59.99 63.495 61 64 C60.67 65.98 60.34 67.96 60 70 C60.66 70 61.32 70 62 70 C62.0292814 74.47915271 62.04689296 78.95828042 62.0625 83.4375 C62.07087891 84.69755859 62.07925781 85.95761719 62.08789062 87.25585938 C62.10531376 93.9289203 61.91378066 100.38768168 61 107 C60.67 107 60.34 107 60 107 C60.00523682 106.33057373 60.01047363 105.66114746 60.01586914 104.97143555 C60.03692471 101.87680029 60.0497497 98.78218019 60.0625 95.6875 C60.07506836 94.1087207 60.07506836 94.1087207 60.08789062 92.49804688 C60.12998049 78.81883995 59.97389847 64.68710977 51.60546875 53.28125 C49.83203835 50.76133917 48.42835177 48.16673907 47 45.4375 C43.8446403 39.54086979 40.64206012 33.76137341 35 30 C34.566875 28.6078125 34.566875 28.6078125 34.125 27.1875 C32.79735944 23.42585175 30.86067405 21.71011226 28 19 C28 18.34 28 17.68 28 17 C27.01 16.690625 27.01 16.690625 26 16.375 C23.40464288 15.18546132 21.80785963 14.12891341 19.625 12.375 C13.63089391 7.70006011 6.73869023 4.45708848 0 1 C0 0.67 0 0.34 0 0 Z " fill="#E26E54" transform="translate(204,26)"/>
<path d="M0 0 C8.07573372 0 14.20992722 0.10215855 21.75 2 C22.9565625 2.28617188 22.9565625 2.28617188 24.1875 2.578125 C26.12788698 3.0401219 28.06442117 3.51825594 30 4 C30 4.33 30 4.66 30 5 C27.75026553 5.054138 25.50015617 5.09285491 23.25 5.125 C21.99703125 5.14820313 20.7440625 5.17140625 19.453125 5.1953125 C16 5 16 5 12 3 C8.7 2.67 5.4 2.34 2 2 C2 64.37 2 126.74 2 191 C1.34 191 0.68 191 0 191 C0 127.97 0 64.94 0 0 Z " fill="#A34939" transform="translate(168,20)"/>
<path d="M0 0 C0.78826172 0.10441406 1.57652344 0.20882812 2.38867188 0.31640625 C4.32319594 0.57434279 6.25559894 0.84810128 8.1875 1.125 C8.1875 1.455 8.1875 1.785 8.1875 2.125 C6.37378906 2.27195312 6.37378906 2.27195312 4.5234375 2.421875 C-22.18301052 4.77276578 -47.55617453 15.1698171 -65.16796875 36.12109375 C-65.71066406 36.78238281 -66.25335938 37.44367188 -66.8125 38.125 C-67.30363281 38.69347656 -67.79476562 39.26195312 -68.30078125 39.84765625 C-78.78622132 52.70715823 -83.015018 68.305075 -86.8125 84.125 C-87.1425 84.125 -87.4725 84.125 -87.8125 84.125 C-90.0809069 74.6389348 -85.68679603 66.48514462 -81.8984375 57.88671875 C-80.87556819 55.28539284 -80.34658274 52.85685683 -79.8125 50.125 C-78.375 48.3125 -78.375 48.3125 -76.8125 47.125 C-76.1525 47.125 -75.4925 47.125 -74.8125 47.125 C-74.77125 46.444375 -74.73 45.76375 -74.6875 45.0625 C-73.60322582 41.42243668 -71.75689755 39.5034224 -69.1875 36.7734375 C-67.58804129 35.0596793 -67.58804129 35.0596793 -66.8125 32.125 C-65.8225 32.125 -64.8325 32.125 -63.8125 32.125 C-63.503125 31.01125 -63.503125 31.01125 -63.1875 29.875 C-61.41133721 26.32267442 -59.13744989 25.20309368 -55.8125 23.125 C-55.1525 22.135 -54.4925 21.145 -53.8125 20.125 C-53.1525 20.125 -52.4925 20.125 -51.8125 20.125 C-51.8125 19.465 -51.8125 18.805 -51.8125 18.125 C-51.07515625 17.85429687 -50.3378125 17.58359375 -49.578125 17.3046875 C-46.93810887 16.17857893 -44.88908111 14.91307465 -42.5625 13.25 C-32.13694853 6.125 -32.13694853 6.125 -26.8125 6.125 C-26.8125 5.465 -26.8125 4.805 -26.8125 4.125 C-25.8225 4.2178125 -25.8225 4.2178125 -24.8125 4.3125 C-20.07334479 4.0163028 -15.7977249 2.16874169 -11.61328125 -0.03125 C-7.58454595 -1.24492758 -4.11350456 -0.59995792 0 0 Z " fill="#B1D8CD" transform="translate(159.8125,112.875)"/>
<path d="M0 0 C5.80205656 5.64524422 5.80205656 5.64524422 8 9 C8 9.66 8 10.32 8 11 C8.99 11.33 9.98 11.66 11 12 C12.75390625 13.8125 12.75390625 13.8125 14.5625 16 C16.92210327 18.94959179 16.92210327 18.94959179 20 21 C20 21.66 20 22.32 20 23 C20.72832031 23.26039063 21.45664063 23.52078125 22.20703125 23.7890625 C25.07018852 25.03043138 27.20519095 26.4958305 29.6875 28.375 C34.52111668 31.85665773 39.38339194 34.07601299 45 36 C39.1335127 38.2893609 32.48041827 34.31453886 27 32 C22.23943117 29.84726557 17.616922 27.44458646 13 25 C12.17757812 24.57847656 11.35515625 24.15695312 10.5078125 23.72265625 C1.54219802 18.9846002 -6.44138327 12.71877043 -14 6 C-13.01 5.34 -12.02 4.68 -11 4 C-10.278125 4.7425 -9.55625 5.485 -8.8125 6.25 C-6.31407427 8.69290515 -3.76356798 10.8681047 -1 13 C0.32 10.36 1.64 7.72 3 5 C2.34 5 1.68 5 1 5 C0.67 3.35 0.34 1.7 0 0 Z " fill="#70A491" transform="translate(86,262)"/>
<path d="M0 0 C0.66 0.33 1.32 0.66 2 1 C2.125 8.625 2.125 8.625 1 12 C0.34 12 -0.32 12 -1 12 C-0.505 15.465 -0.505 15.465 0 19 C-0.61746094 19.24105469 -1.23492187 19.48210937 -1.87109375 19.73046875 C-4.50519101 21.30126069 -4.96540848 22.48665821 -6.0625 25.3125 C-7.46912131 28.7545851 -9.01646145 31.84437049 -11 35 C-12.02028125 36.98054595 -12.98202004 38.95890295 -13.875 41 C-15.24347833 43.43285036 -17.00149279 45.06394614 -19 47 C-19.66 47.99 -20.32 48.98 -21 50 C-21.66 50 -22.32 50 -23 50 C-22.67 50.99 -22.34 51.98 -22 53 C-23.875 54.0625 -23.875 54.0625 -26 55 C-26.66 54.67 -27.32 54.34 -28 54 C-28.33 54.99 -28.66 55.98 -29 57 C-30.65948148 58.01187895 -32.32580562 59.0126546 -34 60 C-34 60.66 -34 61.32 -34 62 C-34.66 62 -35.32 62 -36 62 C-36.33 62.99 -36.66 63.98 -37 65 C-37.66 65 -38.32 65 -39 65 C-42.14736836 66.27620359 -42.14736836 66.27620359 -44 69 C-44.66 69 -45.32 69 -46 69 C-46 68.34 -46 67.68 -46 67 C-48.97 67.99 -48.97 67.99 -52 69 C-49.71927893 66.49927368 -47.38229706 64.96215357 -44.4375 63.3125 C-31.86960052 55.90347629 -21.89390638 46.21321364 -14 34 C-13.4740625 33.195625 -12.948125 32.39125 -12.40625 31.5625 C-6.19854145 21.68084149 -2.47950406 11.36943323 0 0 Z " fill="#EDA289" transform="translate(263,133)"/>
<path d="M0 0 C2.91567804 1.14544495 4.08356761 2.10635878 6.0625 4.625 C6.701875 5.40875 7.34125 6.1925 8 7 C8.99 7 9.98 7 11 7 C11.433125 7.969375 11.86625 8.93875 12.3125 9.9375 C13.7014861 13.27731765 13.7014861 13.27731765 17 14 C16.67 14.99 16.34 15.98 16 17 C16.99 16.67 17.98 16.34 19 16 C19.10957031 16.68707031 19.21914063 17.37414062 19.33203125 18.08203125 C19.49058594 18.98308594 19.64914062 19.88414063 19.8125 20.8125 C19.96332031 21.70582031 20.11414063 22.59914063 20.26953125 23.51953125 C21.063841 26.21678629 21.96740147 27.14560189 24 29 C24 29.66 24 30.32 24 31 C24.66 31 25.32 31 26 31 C26.79953138 34.28696233 27.09658936 35.71023192 26 39 C26.66 39.33 27.32 39.66 28 40 C27.67 41.98 27.34 43.96 27 46 C27.66 46 28.32 46 29 46 C29.0292814 50.47915271 29.04689296 54.95828042 29.0625 59.4375 C29.07087891 60.69755859 29.07925781 61.95761719 29.08789062 63.25585938 C29.10531376 69.9289203 28.91378066 76.38768168 28 83 C27.67 83 27.34 83 27 83 C27.00523682 82.33057373 27.01047363 81.66114746 27.01586914 80.97143555 C27.03692471 77.87680029 27.0497497 74.78218019 27.0625 71.6875 C27.07087891 70.63498047 27.07925781 69.58246094 27.08789062 68.49804688 C27.12998049 54.81883995 26.97389847 40.68710977 18.60546875 29.28125 C16.83203835 26.76133917 15.42835177 24.16673907 14 21.4375 C10.8446403 15.54086979 7.64206012 9.76137341 2 6 C0.8125 2.875 0.8125 2.875 0 0 Z " fill="#D5361F" transform="translate(237,50)"/>
<path d="M0 0 C0.66 0 1.32 0 2 0 C-4.32822292 17.27268574 -20.6865949 30.84793557 -36 40 C-36.68191406 40.45246094 -37.36382812 40.90492188 -38.06640625 41.37109375 C-50.11910812 48.94236048 -67.92920992 52.53097321 -82 52 C-82 47.38 -82 42.76 -82 38 C-81.67 38 -81.34 38 -81 38 C-81 41.96 -81 45.92 -81 50 C-79.515 49.505 -79.515 49.505 -78 49 C-76.23074468 48.87179309 -74.45940825 48.77141988 -72.6875 48.6875 C-61.95129836 47.84569891 -52.11304484 44.29616429 -42.328125 39.953125 C-40 39 -40 39 -38 39 C-38 38.34 -38 37.68 -38 37 C-36.37750059 36.16180842 -34.75191503 35.3295884 -33.125 34.5 C-32.22007812 34.0359375 -31.31515625 33.571875 -30.3828125 33.09375 C-28 32 -28 32 -26 32 C-26 31.34 -26 30.68 -26 30 C-24.5390625 28.4921875 -24.5390625 28.4921875 -22.625 26.875 C-21.99851563 26.33617187 -21.37203125 25.79734375 -20.7265625 25.2421875 C-19 24 -19 24 -17 24 C-16.67 22.68 -16.34 21.36 -16 20 C-15.34 20 -14.68 20 -14 20 C-14 19.34 -14 18.68 -14 18 C-13.34 18 -12.68 18 -12 18 C-11.505 16.515 -11.505 16.515 -11 15 C-10.34 15 -9.68 15 -9 15 C-9 14.01 -9 13.02 -9 12 C-7.33333333 10.33333333 -5.66666667 8.66666667 -4 7 C-2.93988057 5.03120677 -1.92529151 3.03564133 -1 1 C-0.67 0.67 -0.34 0.34 0 0 Z " fill="#CC341F" transform="translate(252,159)"/>
<path d="M0 0 C0.66 0 1.32 0 2 0 C7.20845133 16.11710938 8.60150111 31.35689646 8.5625 48.1875 C8.56467529 49.10584625 8.56685059 50.0241925 8.5690918 50.97036743 C8.56604748 62.34230331 7.7603484 72.94272408 5 84 C4.34 84 3.68 84 3 84 C2.9175 85.258125 2.835 86.51625 2.75 87.8125 C2.12711563 93.49067783 0.44259288 98.8382943 -2 104 C-2.99 104.495 -2.99 104.495 -4 105 C-4.361437 101.02419301 -3.40535534 98.49248267 -1.734375 94.9140625 C-0.49171008 91.6752018 -0.3019449 88.44217188 0 85 C0.66 85 1.32 85 2 85 C1.938125 84.195625 1.87625 83.39125 1.8125 82.5625 C2.01000063 78.80998804 2.88147837 76.0976998 4.24609375 72.63671875 C6.50326216 64.74247689 6.15859355 56.38730004 6.125 48.25 C6.12234131 47.10217041 6.11968262 45.95434082 6.11694336 44.77172852 C7.04543006 32.17973991 7.04543006 32.17973991 4 21 C3.77471076 19.00458104 3.55238905 17.00840136 3.37890625 15.0078125 C3.07746158 12.69284593 3.07746158 12.69284593 1 10 C0.5859375 7.51953125 0.5859375 7.51953125 0.375 4.8125 C0.30023438 3.91144531 0.22546875 3.01039062 0.1484375 2.08203125 C0.07496094 1.05142578 0.07496094 1.05142578 0 0 Z " fill="#E1A38C" transform="translate(303,116)"/>
<path d="M0 0 C0.99 0.33 1.98 0.66 3 1 C0.65695998 4.04595203 -0.68724712 5.72972735 -4.5234375 6.51953125 C-6.30971285 6.67052014 -8.09951545 6.78518703 -9.890625 6.859375 C-11.98603617 6.76653464 -11.98603617 6.76653464 -13 8 C-16.51938142 8.54179352 -20.04806806 8.96654933 -23.58203125 9.40234375 C-26.56832741 9.92451896 -28.38059188 10.61604968 -31 12 C-33.75 11.625 -33.75 11.625 -36 11 C-35.979375 12.26585937 -35.95875 13.53171875 -35.9375 14.8359375 C-35.9375 23.1114014 -36.51736526 31.36676327 -37 39.625 C-37.09661329 41.31378728 -37.19296957 43.00258928 -37.2890625 44.69140625 C-37.52307836 48.79444662 -37.76057338 52.89727196 -38 57 C-38.33 57 -38.66 57 -39 57 C-39 41.16 -39 25.32 -39 9 C-32.4 8.01 -25.8 7.02 -19 6 C-15.51829267 5.19635041 -12.20558896 4.40726368 -8.8125 3.375 C-8.05259766 3.1584375 -7.29269531 2.941875 -6.50976562 2.71875 C-2.96992827 1.89946023 -2.96992827 1.89946023 0 0 Z " fill="#D3D2BF" transform="translate(208,202)"/>
<path d="M0 0 C15.22073733 6.26736243 26.49785432 30.64972826 33.6875 44.74609375 C35.07986767 48.19800527 35.62661075 51.30811381 36 55 C35.34 54.34 34.68 53.68 34 53 C34 51.68 34 50.36 34 49 C32.68 49 31.36 49 30 49 C30 48.34 30 47.68 30 47 C29.34 47 28.68 47 28 47 C28 46.34 28 45.68 28 45 C28.66 45 29.32 45 30 45 C29.71125 44.37351563 29.4225 43.74703125 29.125 43.1015625 C28.75375 42.28429687 28.3825 41.46703125 28 40.625 C27.62875 39.81289062 27.2575 39.00078125 26.875 38.1640625 C26 36 26 36 26 34 C24.68 33.67 23.36 33.34 22 33 C22 31.68 22 30.36 22 29 C21.02246356 27.97803008 20.0194119 26.98020375 19 26 C18.690625 25.154375 18.38125 24.30875 18.0625 23.4375 C17.25557706 20.86417759 17.25557706 20.86417759 15.0625 20.0625 C12.03034841 18.50048251 11.47148628 16.00428449 10 13 C9.29875 12.484375 8.5975 11.96875 7.875 11.4375 C6 10 6 10 5.25 7.3125 C5.1675 6.549375 5.085 5.78625 5 5 C2.03 4.505 2.03 4.505 -1 4 C-0.67 2.68 -0.34 1.36 0 0 Z " fill="#DB8B71" transform="translate(267,61)"/>
<path d="M0 0 C0.66 0.33 1.32 0.66 2 1 C2.125 8.625 2.125 8.625 1 12 C0.34 12 -0.32 12 -1 12 C-0.67 14.31 -0.34 16.62 0 19 C-0.61746094 19.24105469 -1.23492187 19.48210937 -1.87109375 19.73046875 C-4.50519101 21.30126069 -4.96540848 22.48665821 -6.0625 25.3125 C-8.4083798 31.02658855 -11.54762426 35.8809601 -15 41 C-15.99 40.67 -16.98 40.34 -18 40 C-17.33613281 38.98421875 -16.67226562 37.9684375 -15.98828125 36.921875 C-8.34412431 25.07176903 -3.02569539 13.8739203 0 0 Z " fill="#EB8B70" transform="translate(263,133)"/>
<path d="M0 0 C2 1.375 2 1.375 4 3 C4 3.66 4 4.32 4 5 C4.66 5 5.32 5 6 5 C6.79953138 8.28696233 7.09658936 9.71023192 6 13 C6.66 13.33 7.32 13.66 8 14 C7.67 15.98 7.34 17.96 7 20 C7.66 20 8.32 20 9 20 C9.0292814 24.47915271 9.04689296 28.95828042 9.0625 33.4375 C9.07087891 34.69755859 9.07925781 35.95761719 9.08789062 37.25585938 C9.10531376 43.9289203 8.91378066 50.38768168 8 57 C7.67 57 7.34 57 7 57 C7.00523682 56.33057373 7.01047363 55.66114746 7.01586914 54.97143555 C7.03692471 51.87680029 7.0497497 48.78218019 7.0625 45.6875 C7.07087891 44.63498047 7.07925781 43.58246094 7.08789062 42.49804688 C7.11540985 33.55429975 6.95009407 24.62535151 4.625 15.9375 C4.36332031 14.95136719 4.10164063 13.96523437 3.83203125 12.94921875 C2.60941246 8.61552304 1.34093057 4.29858593 0 0 Z " fill="#E86E54" transform="translate(257,76)"/>
<path d="M0 0 C0.99 0.33 1.98 0.66 3 1 C2.56429687 1.75539062 2.12859375 2.51078125 1.6796875 3.2890625 C-4.12878875 14.02594284 -7.10931404 25.18365907 -10 37 C-10.33 37 -10.66 37 -11 37 C-13.2684069 27.5139348 -8.87429603 19.36014462 -5.0859375 10.76171875 C-4.06320456 8.16073964 -3.5430139 5.72923506 -3 3 C-1.4375 1.1875 -1.4375 1.1875 0 0 Z " fill="#7AB6A4" transform="translate(83,160)"/>
<path d="M0 0 C0.33 0.66 0.66 1.32 1 2 C0.06421005 4.35981813 -0.93347808 6.69631264 -2 9 C-2.66 9 -3.32 9 -4 9 C-4.0825 9.515625 -4.165 10.03125 -4.25 10.5625 C-6.19454123 16.88225899 -10.44110311 22.14043498 -14.5 27.25 C-14.97308594 27.86101562 -15.44617188 28.47203125 -15.93359375 29.1015625 C-18.37876384 32.20374505 -20.65072589 34.81981213 -24 37 C-24.66 36.67 -25.32 36.34 -26 36 C-24.515 35.505 -24.515 35.505 -23 35 C-22.29325371 33.68747118 -21.63815344 32.34721283 -21 31 C-16.6461039 24.32305195 -16.6461039 24.32305195 -14 23 C-12.86649466 20.98330173 -12.86649466 20.98330173 -12 19 C-11.34 19 -10.68 19 -10 19 C-9.6596875 17.515 -9.6596875 17.515 -9.3125 16 C-8.22829117 12.13455982 -6.3525164 9.10759109 -4.12109375 5.796875 C-2.83264013 3.88772086 -2.83264013 3.88772086 -2 1 C-1.34 0.67 -0.68 0.34 0 0 Z " fill="#EDCBBB" transform="translate(298,221)"/>
<path d="M0 0 C0.66 0 1.32 0 2 0 C9.16330419 27.73875238 9.16330419 27.73875238 8 42 C7.67 42 7.34 42 7 42 C6.87882812 40.91203125 6.75765625 39.8240625 6.6328125 38.703125 C5.85567089 23.64904802 5.85567089 23.64904802 1 10 C0.5859375 7.51953125 0.5859375 7.51953125 0.375 4.8125 C0.30023438 3.91144531 0.22546875 3.01039062 0.1484375 2.08203125 C0.09945313 1.39496094 0.05046875 0.70789063 0 0 Z " fill="#DA9982" transform="translate(303,116)"/>
<path d="M0 0 C0.33 0 0.66 0 1 0 C1 10.23 1 20.46 1 31 C-6 31 -6 31 -8 30 C-8 29.34 -8 28.68 -8 28 C-6.68 28.33 -5.36 28.66 -4 29 C-4 28.34 -4 27.68 -4 27 C-3.01 27 -2.02 27 -1 27 C-1.00523682 26.2886792 -1.01047363 25.5773584 -1.01586914 24.84448242 C-1.03664018 21.62549725 -1.04966058 18.40652617 -1.0625 15.1875 C-1.07087891 14.06794922 -1.07925781 12.94839844 -1.08789062 11.79492188 C-1.09111328 10.72177734 -1.09433594 9.64863281 -1.09765625 8.54296875 C-1.10289307 7.55321045 -1.10812988 6.56345215 -1.11352539 5.54370117 C-1 3 -1 3 0 0 Z " fill="#D3DAD2" transform="translate(166,83)"/>
<path d="M0 0 C0.99 0.33 1.98 0.66 3 1 C0.65695998 4.04595203 -0.68724712 5.72972735 -4.5234375 6.51953125 C-6.30971285 6.67052014 -8.09951545 6.78518703 -9.890625 6.859375 C-11.98603617 6.76653464 -11.98603617 6.76653464 -13 8 C-18.6822151 9.08808374 -24.22814851 9.10452045 -30 9 C-30 8.67 -30 8.34 -30 8 C-28.99582031 7.82984375 -27.99164063 7.6596875 -26.95703125 7.484375 C-12.47712611 5.80693809 -12.47712611 5.80693809 0 0 Z " fill="#EC917C" transform="translate(208,202)"/>
<path d="M0 0 C-1 3 -1 3 -3.125 4.6875 C-9.79494265 10.05245387 -14.84077544 17.22557747 -20 24 C-21 21 -21 21 -20.375 19.125 C-18.5962482 16.37601994 -16.31032977 14.31032977 -14 12 C-13.67 11.01 -13.34 10.02 -13 9 C-12.01 9 -11.02 9 -10 9 C-9.79375 8.2575 -9.5875 7.515 -9.375 6.75 C-7.53215258 3.06430516 -4.33922806 0 0 0 Z " fill="#9BCBBD" transform="translate(106,136)"/>
<path d="M0 0 C0.33 0 0.66 0 1 0 C1.24994444 6.10975297 0.45780557 11.14752009 -1.25 17 C-1.45496094 17.75539062 -1.65992188 18.51078125 -1.87109375 19.2890625 C-3.36323845 24.55226379 -5.43158953 29.17051023 -8 34 C-8.33 34 -8.66 34 -9 34 C-8.50969378 28.48405502 -6.93199002 23.80918908 -4.984375 18.63671875 C-3.25583752 14.00670763 -2.01010753 9.52686745 -1.4375 4.625 C-1 1 -1 1 0 0 Z " fill="#D2331D" transform="translate(263,125)"/>
<path d="M0 0 C0.99 0.66 1.98 1.32 3 2 C2.02160156 2.50789063 1.04320312 3.01578125 0.03515625 3.5390625 C-7.2382187 7.34693733 -14.30849071 11.21257872 -21 16 C-21 14.68 -21 13.36 -21 12 C-20.34 12 -19.68 12 -19 12 C-19 11.34 -19 10.68 -19 10 C-18.2678125 9.731875 -17.535625 9.46375 -16.78125 9.1875 C-14.06681727 8.02852872 -11.90689599 6.69499718 -9.5 5 C-6.44560955 2.84902081 -3.616252 1.03321486 0 0 Z " fill="#A4D0C3" transform="translate(127,121)"/>
<path d="M0 0 C4.39081764 1.5214886 8.02875969 3.85939639 11.8125 6.5 C12.7087207 7.10521484 12.7087207 7.10521484 13.62304688 7.72265625 C15.12143611 8.76039782 16.56615614 9.87475797 18 11 C18 11.66 18 12.32 18 13 C18.928125 13.4021875 18.928125 13.4021875 19.875 13.8125 C22 15 22 15 24 18 C20.06830895 18 18.83572772 16.60580385 16 14 C16 13.34 16 12.68 16 12 C14.9171875 11.62875 14.9171875 11.62875 13.8125 11.25 C10.74942192 9.88863197 8.58665661 8.11016723 6 6 C5.01 5.67 4.02 5.34 3 5 C3 4.34 3 3.68 3 3 C2.01 2.67 1.02 2.34 0 2 C0 1.34 0 0.68 0 0 Z " fill="#D4331B" transform="translate(214,32)"/>
<path d="M0 0 C6.82165175 6.82165175 6.0392242 22.08666042 6.0625 31.1875 C6.0467943 32.79172506 6.02792366 34.39594109 6 36 C5.67 36 5.34 36 5 36 C4.90912109 34.93458984 4.90912109 34.93458984 4.81640625 33.84765625 C4.73261719 32.92855469 4.64882813 32.00945312 4.5625 31.0625 C4.48128906 30.14597656 4.40007812 29.22945312 4.31640625 28.28515625 C4.23955024 26.03840268 4.23955024 26.03840268 3 25 C2.83948952 23.00253626 2.72229703 21.00153898 2.625 19 C2.2854906 13.85077406 1.48269572 9.56802171 -0.4765625 4.8046875 C-1 3 -1 3 0 0 Z " fill="#D4351E" transform="translate(259,84)"/>
<path d="M0 0 C10.24656458 -0.38747513 19.03143819 0.41954024 29 3 C29 3.33 29 3.66 29 4 C26.75026553 4.054138 24.50015617 4.09285491 22.25 4.125 C20.99703125 4.14820313 19.7440625 4.17140625 18.453125 4.1953125 C15.13416273 4.00758839 13.80866321 3.54476477 11 2 C8.41467299 1.54935368 8.41467299 1.54935368 5.75 1.375 C4.1825 1.25125 2.615 1.1275 1 1 C1 4.63 1 8.26 1 12 C0.67 12 0.34 12 0 12 C0 8.04 0 4.08 0 0 Z " fill="#CB3B2C" transform="translate(169,21)"/>
<path d="M0 0 C2.72547262 2.38675782 3.95487627 4.75046647 5.375 8.0625 C7.06030745 11.88997535 8.77684876 15.68553031 10.625 19.4375 C11.00914063 20.21996094 11.39328125 21.00242188 11.7890625 21.80859375 C12.95445333 24.07151284 12.95445333 24.07151284 14.7109375 26.09765625 C15.13632812 26.72542969 15.56171875 27.35320312 16 28 C15.67 28.99 15.34 29.98 15 31 C14.15801693 29.90241493 13.32669329 28.79664683 12.5 27.6875 C12.0359375 27.07261719 11.571875 26.45773438 11.09375 25.82421875 C10 24 10 24 10 21 C9.34 21 8.68 21 8 21 C6.66087415 17.87745057 5.32969342 14.75157642 4 11.625 C3.6184375 10.73554688 3.236875 9.84609375 2.84375 8.9296875 C2.30234375 7.65351563 2.30234375 7.65351563 1.75 6.3515625 C1.41484375 5.56604004 1.0796875 4.78051758 0.734375 3.97119141 C0 2 0 2 0 0 Z " fill="#92B2A6" transform="translate(33,209)"/>
<path d="M0 0 C8.20275279 3.39295683 13.65110075 12.13736698 17 20 C15.09375 19.6796875 15.09375 19.6796875 13 19 C11.96567096 17.01753602 10.96761608 15.01586684 10 13 C9.29875 12.484375 8.5975 11.96875 7.875 11.4375 C6 10 6 10 5.25 7.3125 C5.1675 6.549375 5.085 5.78625 5 5 C2.03 4.505 2.03 4.505 -1 4 C-0.67 2.68 -0.34 1.36 0 0 Z " fill="#D37D63" transform="translate(267,61)"/>
<path d="M0 0 C8.93503965 4.48910205 16.91283844 9.97664746 23 18 C17.33846154 16.52307692 17.33846154 16.52307692 15.625 13.875 C15.41875 13.25625 15.2125 12.6375 15 12 C14.34 12 13.68 12 13 12 C12.67 11.34 12.34 10.68 12 10 C10.8553125 9.566875 10.8553125 9.566875 9.6875 9.125 C6.68144141 7.86664989 5.20895165 6.3562151 3 4 C2.01 3.34 1.02 2.68 0 2 C0 1.34 0 0.68 0 0 Z " fill="#D17B65" transform="translate(244,43)"/>
<path d="M0 0 C0.33 0 0.66 0 1 0 C1.05447047 1.41623216 1.09300508 2.83308191 1.125 4.25 C1.14820312 5.03890625 1.17140625 5.8278125 1.1953125 6.640625 C0.97998763 9.24174937 0.19969014 10.70968246 -1 13 C-1.44500285 15.12593058 -1.44500285 15.12593058 -1.625 17.25 C-1.74875 18.4875 -1.8725 19.725 -2 21 C-2.66 21 -3.32 21 -4 21 C-4.09706112 14.88514973 -3.77040851 9.06696699 -3 3 C-2.01 2.67 -1.02 2.34 0 2 C0 1.34 0 0.68 0 0 Z " fill="#5D9F8A" transform="translate(74,195)"/>
<path d="M0 0 C0 3 0 3 -1.609375 4.68359375 C-2.66898437 5.55177734 -2.66898437 5.55177734 -3.75 6.4375 C-6.07866007 8.37942147 -8.25563998 10.26236735 -10.375 12.4375 C-12 14 -12 14 -14 14 C-14 14.66 -14 15.32 -14 16 C-15.42578125 17.32421875 -15.42578125 17.32421875 -17.3125 18.6875 C-17.92738281 19.14511719 -18.54226562 19.60273438 -19.17578125 20.07421875 C-19.77777344 20.37972656 -20.37976563 20.68523437 -21 21 C-21.99 20.67 -22.98 20.34 -24 20 C-22.87926138 19.16094435 -21.75325453 18.32892169 -20.625 17.5 C-19.99851563 17.0359375 -19.37203125 16.571875 -18.7265625 16.09375 C-17 15 -17 15 -15 15 C-15 14.34 -15 13.68 -15 13 C-13.54434328 11.77592503 -12.0843712 10.55624699 -10.59375 9.375 C-8.76463911 7.88181237 -8.76463911 7.88181237 -6.75 5.1875 C-5.88375 4.1046875 -5.88375 4.1046875 -5 3 C-4.34 3 -3.68 3 -3 3 C-3 2.34 -3 1.68 -3 1 C-2.01 0.67 -1.02 0.34 0 0 Z " fill="#F1D9CD" transform="translate(274,257)"/>
<path d="M0 0 C0.33 0 0.66 0 1 0 C1.64795862 3.04121788 2.29298156 6.08305136 2.9375 9.125 C3.11990234 9.9809375 3.30230469 10.836875 3.49023438 11.71875 C3.84346766 13.38858007 4.19175688 15.05946499 4.53466797 16.73144531 C4.92906775 18.654196 5.33971515 20.57360283 5.75390625 22.4921875 C5.83511719 23.31976563 5.91632813 24.14734375 6 25 C5.34 25.66 4.68 26.32 4 27 C1.31640963 17.93655327 0.3722246 9.39546231 0 0 Z " fill="#72B19E" transform="translate(71,217)"/>
<path d="M0 0 C0 3 0 3 -2.375 5.5 C-3.674375 6.7375 -3.674375 6.7375 -5 8 C-5.99 9.485 -5.99 9.485 -7 11 C-7.66 11 -8.32 11 -9 11 C-10.33783393 11.31478446 -11.67203709 11.64587656 -13 12 C-12.59007812 11.52949219 -12.18015625 11.05898437 -11.7578125 10.57421875 C-11.21898437 9.95160156 -10.68015625 9.32898438 -10.125 8.6875 C-9.59132812 8.07261719 -9.05765625 7.45773438 -8.5078125 6.82421875 C-6.8359553 4.86501788 -6.8359553 4.86501788 -5 2 C-2.375 0.8125 -2.375 0.8125 0 0 Z " fill="#EC9A80" transform="translate(249,172)"/>
<path d="M0 0 C5.80205656 5.64524422 5.80205656 5.64524422 8 9 C8 9.66 8 10.32 8 11 C8.99 11.33 9.98 11.66 11 12 C11 12.99 11 13.98 11 15 C10.01 14.67 9.02 14.34 8 14 C7.3125 11.9375 7.3125 11.9375 7 10 C5.68 10.33 4.36 10.66 3 11 C1.875 7.25 1.875 7.25 3 5 C2.34 5 1.68 5 1 5 C0.67 3.35 0.34 1.7 0 0 Z " fill="#64A58F" transform="translate(86,262)"/>
<path d="M0 0 C0.99 0.33 1.98 0.66 3 1 C0.69 5.62 -1.62 10.24 -4 15 C-4.66 15 -5.32 15 -6 15 C-3.80769231 2.94230769 -3.80769231 2.94230769 0 0 Z " fill="#8BC1AF" transform="translate(83,160)"/>
<path d="M0 0 C2.91567804 1.14544495 4.08356761 2.10635878 6.0625 4.625 C6.701875 5.40875 7.34125 6.1925 8 7 C8.99 7 9.98 7 11 7 C11.66 9.31 12.32 11.62 13 14 C12.608125 13.566875 12.21625 13.13375 11.8125 12.6875 C9.7095817 10.72961055 7.48680899 9.42991517 5 8 C1.39345961 5.59563974 1.14547068 4.05320393 0 0 Z " fill="#DB422A" transform="translate(237,50)"/>
<path d="M0 0 C0.33 0.66 0.66 1.32 1 2 C0.06421005 4.35981813 -0.93347808 6.69631264 -2 9 C-2.66 9 -3.32 9 -4 9 C-4.103125 9.556875 -4.20625 10.11375 -4.3125 10.6875 C-5.14011401 13.47129258 -6.37737752 15.59851873 -8 18 C-8.66 18.33 -9.32 18.66 -10 19 C-8.82909107 13.8905792 -7.05047446 10.14313718 -4.12109375 5.796875 C-2.83264013 3.88772086 -2.83264013 3.88772086 -2 1 C-1.34 0.67 -0.68 0.34 0 0 Z " fill="#EBBFB0" transform="translate(298,221)"/>
<path d="M0 0 C3.25209513 1.08403171 3.91385694 1.79991716 6 4.375 C7.90538378 6.70711035 9.83759792 8.90195513 12 11 C7.82438593 11 6.46042213 9.16647522 3.3125 6.5 C2.31863281 5.6646875 1.32476562 4.829375 0.30078125 3.96875 C-0.45847656 3.3190625 -1.21773438 2.669375 -2 2 C-1.34 1.34 -0.68 0.68 0 0 Z " fill="#81A698" transform="translate(74,266)"/>
<path d="M0 0 C3.82081487 2.37154026 5.15013634 4.96393384 7 9 C7.99 10.485 7.99 10.485 9 12 C8.67 12.99 8.34 13.98 8 15 C6.46623771 13.07158542 4.9482818 11.13378206 3.4375 9.1875 C2.78104492 8.36668945 2.78104492 8.36668945 2.11132812 7.52929688 C0.99411861 6.0778042 -0.01128867 4.54189429 -1 3 C-0.67 2.01 -0.34 1.02 0 0 Z " fill="#85AA9C" transform="translate(50,239)"/>
<path d="M0 0 C4.44707038 3.93394688 9.79408923 9.66330952 10.171875 15.78515625 C10.08679688 16.88150391 10.08679688 16.88150391 10 18 C9.01 17.67 8.02 17.34 7 17 C7 15.68 7 14.36 7 13 C5.63560587 11.45832832 5.63560587 11.45832832 4 10 C2.83203125 8.02734375 2.83203125 8.02734375 1.8125 5.9375 C1.29623047 4.89916016 1.29623047 4.89916016 0.76953125 3.83984375 C0 2 0 2 0 0 Z " fill="#D68971" transform="translate(282,77)"/>
<path d="M0 0 C2.97 0.495 2.97 0.495 6 1 C6 1.66 6 2.32 6 3 C8.31 3.66 10.62 4.32 13 5 C12.34 5.66 11.68 6.32 11 7 C4.04827586 5.7862069 4.04827586 5.7862069 1 3.5 C0 2 0 2 0 0 Z " fill="#D37D63" transform="translate(224,33)"/>
<path d="M0 0 C3.98436101 3.98436101 5.6058191 10.48146747 6 16 C5.34 16.66 4.68 17.32 4 18 C3.69255859 16.82630859 3.69255859 16.82630859 3.37890625 15.62890625 C3.10949219 14.61699219 2.84007812 13.60507813 2.5625 12.5625 C2.16224609 11.04849609 2.16224609 11.04849609 1.75390625 9.50390625 C1.24021923 7.08247999 1.24021923 7.08247999 0 6 C-0.04080783 4.00041636 -0.04254356 1.99954746 0 0 Z " fill="#98B8AA" transform="translate(28,191)"/>
<path d="M0 0 C0.99 0 1.98 0 3 0 C1.33846988 5.85659906 -0.47041916 11.4590134 -3 17 C-4.56393356 13.02623171 -3.36145292 10.18622097 -2.0625 6.25 C-1.68222656 5.07953125 -1.30195313 3.9090625 -0.91015625 2.703125 C-0.60980469 1.81109375 -0.30945313 0.9190625 0 0 Z " fill="#E9BFAD" transform="translate(303,204)"/>
<path d="M0 0 C0.99 0.33 1.98 0.66 3 1 C2.67 1.99 2.34 2.98 2 4 C2.99 3.67 3.98 3.34 5 3 C5.66 5.97 6.32 8.94 7 12 C6.01 12.495 6.01 12.495 5 13 C3.02 9.04 1.04 5.08 -1 1 C-0.67 0.67 -0.34 0.34 0 0 Z " fill="#E97257" transform="translate(251,63)"/>
<path d="M0 0 C0.99 0.33 1.98 0.66 3 1 C0.13301658 4.49413605 -1.84150148 6.28836874 -6.3125 6.8125 C-8.1378125 6.9053125 -8.1378125 6.9053125 -10 7 C-10 6.34 -10 5.68 -10 5 C-9.36191406 4.72285156 -8.72382813 4.44570312 -8.06640625 4.16015625 C-7.24011719 3.79792969 -6.41382813 3.43570313 -5.5625 3.0625 C-4.73878906 2.70285156 -3.91507813 2.34320313 -3.06640625 1.97265625 C-1.05589883 1.16877677 -1.05589883 1.16877677 0 0 Z " fill="#F2B59A" transform="translate(208,202)"/>
<path d="M0 0 C0.66 0 1.32 0 2 0 C0.45212498 3.83450856 -1.93722746 6.02555699 -5 8.75 C-5.886875 9.54921875 -6.77375 10.3484375 -7.6875 11.171875 C-10 13 -10 13 -12 13 C-12 11 -12 11 -10.3203125 9.2734375 C-9.59585937 8.64695312 -8.87140625 8.02046875 -8.125 7.375 C-7.04605469 6.42753906 -7.04605469 6.42753906 -5.9453125 5.4609375 C-4 4 -4 4 -2 4 C-1.34 2.68 -0.68 1.36 0 0 Z " fill="#F8F0EA" transform="translate(272,260)"/>
<path d="M0 0 C0.66 0 1.32 0 2 0 C1.67 2.31 1.34 4.62 1 7 C0.34 7 -0.32 7 -1 7 C-1.33 8.65 -1.66 10.3 -2 12 C-2.66 10.68 -3.32 9.36 -4 8 C-3.34 8 -2.68 8 -2 8 C-2.04125 7.05125 -2.0825 6.1025 -2.125 5.125 C-2 2 -2 2 0 0 Z " fill="#E4AF98" transform="translate(307,193)"/>
<path d="M0 0 C3.05001831 3.66002197 7 9.07851471 7 14 C4 13 4 13 2.83203125 11.07421875 C2.49558594 10.28660156 2.15914063 9.49898437 1.8125 8.6875 C1.46832031 7.90761719 1.12414062 7.12773438 0.76953125 6.32421875 C0 4 0 4 0 0 Z " fill="#D8937F" transform="translate(292,91)"/>
<path d="M0 0 C0.99 0.33 1.98 0.66 3 1 C1.89718873 2.27200971 0.79269231 3.54255853 -0.3125 4.8125 C-1.23482422 5.87404297 -1.23482422 5.87404297 -2.17578125 6.95703125 C-3.73334335 8.70136739 -5.32658875 10.36778041 -7 12 C-6.67566492 6.64847115 -3.50295176 3.71719957 0 0 Z " fill="#94C5B6" transform="translate(92,148)"/>
<path d="M0 0 C3.82622743 1.5588334 6.25147379 3.95433582 9 7 C9.33 7.99 9.66 8.98 10 10 C9.34 10 8.68 10 8 10 C6.74772516 8.52295788 5.49833478 7.04172601 4.31640625 5.5078125 C2.88235909 3.73237056 2.88235909 3.73237056 0 2 C0 1.34 0 0.68 0 0 Z " fill="#86A89B" transform="translate(62,257)"/>
<path d="M0 0 C0.33 0 0.66 0 1 0 C1.05429959 1.74965358 1.09292823 3.49979787 1.125 5.25 C1.14820312 6.22453125 1.17140625 7.1990625 1.1953125 8.203125 C0.99862781 11.0196498 0.44568916 12.60949036 -1 15 C-2.18609365 9.3067505 -1.66251802 5.57432514 0 0 Z " fill="#86BEAC" transform="translate(73,182)"/>
<path d="M0 0 C-3.64418341 2.42945561 -4.92923364 2.0828781 -9.1875 1.625 C-10.27417969 1.51414062 -11.36085937 1.40328125 -12.48046875 1.2890625 C-13.31191406 1.19367188 -14.14335937 1.09828125 -15 1 C-15 0.67 -15 0.34 -15 0 C-9.96266834 -1.5111995 -5.11828973 -0.64599773 0 0 Z " fill="#488B76" transform="translate(164,303)"/>
<path d="M0 0 C-3.44450737 2.29633824 -5.93812283 2.54016485 -10 3 C-10 2.01 -10 1.02 -10 0 C-6.30581799 -1.231394 -3.7943739 -0.64432764 0 0 Z " fill="#A6D6C9" transform="translate(149,116)"/>
<path d="M0 0 C2.77153305 1.38576653 3.48074938 3.34131141 5 6 C5.99 7.485 5.99 7.485 7 9 C6.67 9.99 6.34 10.98 6 12 C0.44419134 4.88610478 0.44419134 4.88610478 0 0 Z " fill="#8BACA0" transform="translate(42,228)"/>
<path d="M0 0 C1.98 0 3.96 0 6 0 C6 0.99 6 1.98 6 3 C4.02 3.33 2.04 3.66 0 4 C-0.33 3.34 -0.66 2.68 -1 2 C-0.67 1.34 -0.34 0.68 0 0 Z " fill="#D97655" transform="translate(233,39)"/>
<path d="M0 0 C0.66 0.33 1.32 0.66 2 1 C1.67 3.31 1.34 5.62 1 8 C0.34 8 -0.32 8 -1 8 C-1.33 8.99 -1.66 9.98 -2 11 C-1 3.57142857 -1 3.57142857 0 0 Z " fill="#EC7F64" transform="translate(263,133)"/>
<path d="M0 0 C0.33 0 0.66 0 1 0 C1 1.98 1 3.96 1 6 C1.66 6 2.32 6 3 6 C3 7.98 3 9.96 3 12 C2.34 12 1.68 12 1 12 C-0.3271261 8.0186217 -0.06915913 4.14954773 0 0 Z " fill="#ED7C5F" transform="translate(263,90)"/>
<path d="M0 0 C0.33 0 0.66 0 1 0 C1.08096803 1.45742463 1.13917774 2.91612807 1.1875 4.375 C1.22230469 5.18710938 1.25710937 5.99921875 1.29296875 6.8359375 C1.19628906 7.55007812 1.09960938 8.26421875 1 9 C0.01 9.66 -0.98 10.32 -2 11 C-2 9.02 -2 7.04 -2 5 C-1.34 5 -0.68 5 0 5 C0 3.35 0 1.7 0 0 Z " fill="#AFC2B9" transform="translate(31,122)"/>
<path d="M0 0 C4.21912747 0.4794463 6.79663178 1.16625119 10 4 C2.25 3.125 2.25 3.125 0 2 C0 1.34 0 0.68 0 0 Z " fill="#CB3C2B" transform="translate(198,25)"/>
<path d="M0 0 C1.0859375 1.765625 1.0859375 1.765625 2 4 C0.625 7.75 0.625 7.75 -1 11 C-2.31625194 8.36749612 -1.74813658 7.19820944 -1.0625 4.375 C-0.86785156 3.55773437 -0.67320312 2.74046875 -0.47265625 1.8984375 C-0.23869141 0.95871094 -0.23869141 0.95871094 0 0 Z " fill="#D83924" transform="translate(259,141)"/>
<path d="M0 0 C-1.45264038 0.8638129 -2.9123163 1.71580454 -4.375 2.5625 C-5.59316406 3.27599609 -5.59316406 3.27599609 -6.8359375 4.00390625 C-7.55007812 4.33261719 -8.26421875 4.66132812 -9 5 C-9.66 4.67 -10.32 4.34 -11 4 C-9.73760288 3.13341385 -8.46472499 2.28207941 -7.1875 1.4375 C-6.47980469 0.96183594 -5.77210937 0.48617187 -5.04296875 -0.00390625 C-3 -1 -3 -1 0 0 Z " fill="#EEF2F0" transform="translate(106,36)"/>
<path d="M0 0 C3.96 0 7.92 0 12 0 C10.515 1.485 10.515 1.485 9 3 C6.73828125 2.85546875 6.73828125 2.85546875 4.3125 2.1875 C3.50425781 1.97480469 2.69601563 1.76210937 1.86328125 1.54296875 C0.94095703 1.27419922 0.94095703 1.27419922 0 1 C0 0.67 0 0.34 0 0 Z " fill="#F1B59E" transform="translate(169,211)"/>
<path d="M0 0 C3.16115776 1.36983503 3.9927092 1.9890638 6 5 C3.69 4.67 1.38 4.34 -1 4 C-0.67 2.68 -0.34 1.36 0 0 Z " fill="#D58570" transform="translate(267,61)"/>
</svg>
